# xmcd CD database file
#
# Track frame offsets:
#	150
#	16208
#	31925
#	44798
#	60464
#	73847
#	88460
#	103480
#	123521
#	136394
#
# Disc length: 2047 seconds
#
# Revision: 0
# Processed by: cddbd v1.5.1PL2 Copyright (c) Steve Scherf et al.
# Submitted via: CDex 1.51
#
DISCID=9707fd0a
DTITLE=J.C. Andersen - When The Tide Rolls In
DYEAR=2005
DGENRE=Country
TTITLE0=Leanin
TTITLE1=Sweeter Than Sugarcane
TTITLE2=When The Tide Rolls In
TTITLE3=Hearts and Horses
TTITLE4=Sing Along
TTITLE5=A Kiss Away
TTITLE6=Are You
TTITLE7=All Along
TTITLE8=The Girl that Broke Joe's Heart
TTITLE9=Nobody does Nothin
EXTD=YEAR: 2005
EXTT0=
EXTT1=
EXTT2=
EXTT3=
EXTT4=
EXTT5=
EXTT6=
EXTT7=
EXTT8=
EXTT9=
PLAYORDER=
